<svg width="38" height="38" viewBox="0 0 38 38" fill="none" xmlns="http://www.w3.org/2000/svg">
<g clip-path="url(#clip0_111_40)">
<path d="M4.75 11.875V35.625C4.75 36.9313 5.81875 38 7.125 38H28.5C29.8062 38 30.875 36.9313 30.875 35.625V11.875H4.75ZM11.875 33.25H9.5V16.625H11.875V33.25ZM16.625 33.25H14.25V16.625H16.625V33.25ZM21.375 33.25H19V16.625H21.375V33.25ZM26.125 33.25H23.75V16.625H26.125V33.25ZM31.4688 4.75H23.75V1.78125C23.7481 1.30941 23.5599 0.857432 23.2262 0.523789C22.8926 0.190145 22.4406 0.00187612 21.9688 0L13.6562 0C13.1844 0.00187612 12.7324 0.190145 12.3988 0.523789C12.0651 0.857432 11.8769 1.30941 11.875 1.78125V4.75H4.15625C3.68422 4.75125 3.23188 4.93932 2.8981 5.2731C2.56432 5.60688 2.37625 6.05922 2.375 6.53125V9.5H33.25V6.53125C33.2487 6.05922 33.0607 5.60688 32.7269 5.2731C32.3931 4.93932 31.9408 4.75125 31.4688 4.75ZM21.375 4.75H14.25V2.40587H21.375V4.75Z" fill="black"/>
</g>
<defs>
<clipPath id="clip0_111_40">
<rect width="38" height="38" fill="white"/>
</clipPath>
</defs>
</svg>
